<svg xmlns="http://www.w3.org/2000/svg" version="1.1" xmlns:xlink="http://www.w3.org/1999/xlink" xmlns:svgjs="http://svgjs.dev/svgjs" width="2000" height="712" viewBox="0 0 2000 712"><g transform="matrix(1,0,0,1,-1.2121212121212466,-0.4387157075556729)"><svg viewBox="0 0 396 141" data-background-color="#161618" preserveAspectRatio="xMidYMid meet" height="712" width="2000" xmlns="http://www.w3.org/2000/svg" xmlns:xlink="http://www.w3.org/1999/xlink"><g id="tight-bounds" transform="matrix(1,0,0,1,0.2400000000000091,0.08688049826594124)"><svg viewBox="0 0 395.52 140.82623900346812" height="140.82623900346812" width="395.52"><g><svg viewBox="0 0 686.5019771267137 244.43135999999998" height="140.82623900346812" width="395.52"><g transform="matrix(1,0,0,1,0,82.77870451184046)"><svg viewBox="0 0 395.52 78.87395097631907" height="78.87395097631907" width="395.52"><g id="textblocktransform"><svg viewBox="0 0 395.52 78.87395097631907" height="78.87395097631907" width="395.52" id="textblock"><g><svg viewBox="0 0 395.52 78.87395097631907" height="78.87395097631907" width="395.52"><g transform="matrix(1,0,0,1,0,0)"><svg width="395.52" viewBox="2.25 -37 240.68 48" height="78.87395097631907" data-palette-color="#ffffff"><path d="M14.5 0.6L14.5 0.6Q10.8 0.6 8.03-1.13 5.25-2.85 3.75-5.93 2.25-9 2.25-13L2.25-13Q2.25-16.75 3.78-19.85 5.3-22.95 8.15-24.78 11-26.6 14.85-26.6L14.85-26.6Q17.05-26.6 18.73-26.2 20.4-25.8 21.95-25.05L21.95-25.05 20.6-21.25Q19.2-21.95 17.93-22.28 16.65-22.6 15.1-22.6L15.1-22.6Q11.6-22.6 9.22-20.08 6.85-17.55 6.85-13.1L6.85-13.1Q6.85-10.4 7.85-8.2 8.85-6 10.63-4.7 12.4-3.4 14.8-3.4L14.8-3.4Q16.7-3.4 18.05-3.83 19.4-4.25 20.95-5.05L20.95-5.05 22.35-1.25Q20.8-0.4 18.88 0.1 16.95 0.6 14.5 0.6ZM32.1 0L27.6 0 27.6-37 32.1-37 32.1-21.85Q33.5-23.9 35.65-25.25 37.8-26.6 40.7-26.6L40.7-26.6Q45.1-26.6 47.27-23.95 49.45-21.3 49.45-16.95L49.45-16.95 49.45 0 44.95 0 44.95-16.45Q44.95-19.25 43.65-20.95 42.35-22.65 40-22.65L40-22.65Q37.7-22.65 35.62-21.03 33.55-19.4 32.1-17.2L32.1-17.2 32.1 0ZM67.6 0.6L67.6 0.6Q62 0.6 58.72-2.98 55.45-6.55 55.45-13L55.45-13Q55.45-16.9 56.92-19.98 58.4-23.05 61.05-24.83 63.7-26.6 67.2-26.6L67.2-26.6Q70.95-26.6 73.42-24.98 75.9-23.35 77.15-20.6 78.4-17.85 78.4-14.55L78.4-14.55Q78.4-12.8 78.25-11.15L78.25-11.15 60.05-11.15Q60.5-7.5 62.6-5.45 64.7-3.4 68.15-3.4L68.15-3.4Q70.4-3.4 72.2-3.88 74-4.35 75.65-5.1L75.65-5.1 76.7-1.25Q74.9-0.45 72.65 0.08 70.4 0.6 67.6 0.6ZM60-14.8L60-14.8 74.25-14.8Q74.25-18.6 72.35-20.65 70.45-22.7 67.1-22.7L67.1-22.7Q64.2-22.7 62.3-20.68 60.4-18.65 60-14.8ZM91.39 0.6L91.39 0.6Q88.44 0.6 86.07-0.15 83.69-0.9 82.14-2.1L82.14-2.1 84.04-5.85Q85.34-4.75 87.32-4.03 89.29-3.3 91.54-3.3L91.54-3.3Q94.34-3.3 95.77-4.23 97.19-5.15 97.19-6.6L97.19-6.6Q97.19-7.65 96.67-8.45 96.14-9.25 94.74-10.03 93.34-10.8 90.69-11.7L90.69-11.7Q87.04-12.95 85.22-14.68 83.39-16.4 83.39-19.45L83.39-19.45Q83.39-22.45 86.02-24.53 88.64-26.6 93.29-26.6L93.29-26.6Q95.79-26.6 97.74-26.08 99.69-25.55 101.24-24.75L101.24-24.75 99.99-21.05Q98.64-21.85 96.92-22.35 95.19-22.85 93.09-22.85L93.09-22.85Q90.49-22.85 89.14-21.8 87.79-20.75 87.79-19.5L87.79-19.5Q87.79-18.3 88.84-17.45 89.89-16.6 92.94-15.6L92.94-15.6Q97.89-13.95 99.84-11.95 101.79-9.95 101.79-6.95L101.79-6.95Q101.79-3.45 98.97-1.43 96.14 0.6 91.39 0.6ZM114.79 0.6L114.79 0.6Q111.84 0.6 109.47-0.15 107.09-0.9 105.54-2.1L105.54-2.1 107.44-5.85Q108.74-4.75 110.72-4.03 112.69-3.3 114.94-3.3L114.94-3.3Q117.74-3.3 119.17-4.23 120.59-5.15 120.59-6.6L120.59-6.6Q120.59-7.65 120.07-8.45 119.54-9.25 118.14-10.03 116.74-10.8 114.09-11.7L114.09-11.7Q110.44-12.95 108.62-14.68 106.79-16.4 106.79-19.45L106.79-19.45Q106.79-22.45 109.42-24.53 112.04-26.6 116.69-26.6L116.69-26.6Q119.19-26.6 121.14-26.08 123.09-25.55 124.64-24.75L124.64-24.75 123.39-21.05Q122.04-21.85 120.32-22.35 118.59-22.85 116.49-22.85L116.49-22.85Q113.89-22.85 112.54-21.8 111.19-20.75 111.19-19.5L111.19-19.5Q111.19-18.3 112.24-17.45 113.29-16.6 116.34-15.6L116.34-15.6Q121.29-13.95 123.24-11.95 125.19-9.95 125.19-6.95L125.19-6.95Q125.19-3.45 122.37-1.43 119.54 0.6 114.79 0.6ZM160.09-1.25L155.74 0.5 151.84-9.5 135.64-9.5 131.74 0.4 127.69-1.25 141.39-35 146.59-35 160.09-1.25ZM143.74-30.3L137.14-13.5 150.29-13.5 143.74-30.3ZM170.04 11L165.54 11 165.54-19.35Q165.54-21.05 164.71-21.78 163.89-22.5 162.59-22.5L162.59-22.5 163.54-26Q168.14-26 169.29-22.35L169.29-22.35Q169.79-23.1 170.91-24.1 172.04-25.1 173.71-25.85 175.39-26.6 177.54-26.6L177.54-26.6Q180.54-26.6 183.16-25.03 185.79-23.45 187.39-20.48 188.99-17.5 188.99-13.25L188.99-13.25Q188.99-9.1 187.39-5.98 185.79-2.85 183.21-1.13 180.64 0.6 177.64 0.6L177.64 0.6Q175.34 0.6 173.34-0.33 171.34-1.25 170.04-2.45L170.04-2.45 170.04 11ZM176.74-3.4L176.74-3.4Q180.14-3.4 182.26-6.08 184.39-8.75 184.39-13.1L184.39-13.1Q184.39-16.1 183.31-18.25 182.24-20.4 180.46-21.55 178.69-22.7 176.54-22.7L176.54-22.7Q174.39-22.7 172.66-21.63 170.94-20.55 170.04-19.3L170.04-19.3 170.04-6.5Q171.34-5.15 173.04-4.28 174.74-3.4 176.74-3.4ZM205.63 0.6L205.63 0.6Q200.03 0.6 196.76-2.98 193.48-6.55 193.48-13L193.48-13Q193.48-16.9 194.96-19.98 196.43-23.05 199.08-24.83 201.73-26.6 205.23-26.6L205.23-26.6Q208.98-26.6 211.46-24.98 213.93-23.35 215.18-20.6 216.43-17.85 216.43-14.55L216.43-14.55Q216.43-12.8 216.28-11.15L216.28-11.15 198.08-11.15Q198.53-7.5 200.63-5.45 202.73-3.4 206.18-3.4L206.18-3.4Q208.43-3.4 210.23-3.88 212.03-4.35 213.68-5.1L213.68-5.1 214.73-1.25Q212.93-0.45 210.68 0.08 208.43 0.6 205.63 0.6ZM198.03-14.8L198.03-14.8 212.28-14.8Q212.28-18.6 210.38-20.65 208.48-22.7 205.13-22.7L205.13-22.7Q202.23-22.7 200.33-20.68 198.43-18.65 198.03-14.8ZM242.93-2.45L239.53 0.45 230.78-10.4 222.13 0.35 218.93-2.45 228.18-13.2 219.28-23.5 222.78-26.55 230.83-16.15 238.73-26.35 242.08-23.5 233.43-13.4 242.93-2.45Z" opacity="1" transform="matrix(1,0,0,1,0,0)" fill="#000000" class="wordmark-text-0" data-fill-palette-color="primary" id="text-0"></path></svg></g></svg></g></svg></g></svg></g><g transform="matrix(1,0,0,1,442.0706171267137,0)"><svg viewBox="0 0 244.43135999999998 244.43135999999998" height="244.43135999999998" width="244.43135999999998"><g><svg viewBox="0 0 244.43135999999998 244.43135999999998" height="244.43135999999998" width="244.43135999999998"><g transform="matrix(1,0,0,1,64.60265593644992,83.6934628267274)"><svg viewBox="0 0 115.22604812710014 77.04443434654517" height="77.04443434654517" width="115.22604812710014"><g><svg xmlns="http://www.w3.org/2000/svg" xmlns:xlink="http://www.w3.org/1999/xlink" version="1.1" x="0" y="0" viewBox="0.0005970206521622584 16.567 100.00040297934784 66.864" enable-background="new 0 0 100 100" xml:space="preserve" id="dxe-0" width="115.22604812710014" height="77.04443434654517" class="icon-dxe-0" data-fill-palette-color="accent"><g fill="#ffffff" data-fill-palette-color="accent"><g fill="#ffffff" data-fill-palette-color="accent"><path d="M99.07 78.93V75.475H98.423V74.73S99.442 74.894 99.442 72.47C99.442 70.051 98.837 67.4 93.614 65.094 93.577 65.077 93.551 65.058 93.516 65.039H94.114V62.824H93.033L91.858 36.491H93.139V35.178H94.981V23.928H90.731V26.702H88.102V23.928H81.203V26.702H78.573V23.928H74.323V35.18H76.165V36.493H77.446L76.272 62.826H75.19V65.041H75.786C75.751 65.06 75.723 65.079 75.686 65.097 70.464 67.402 69.862 70.054 69.862 72.472 69.862 74.896 70.88 74.732 70.88 74.732V75.476H70.23V78.931H69.301V83.431H100.001V78.931z" fill="#000000" data-fill-palette-color="accent"></path><path d="M63.671 79.895V77.182H63.162V76.594S63.962 76.725 63.962 74.821C63.962 72.922 63.484 70.836 59.384 69.024A3.3 3.3 0 0 1 58.841 68.721V67.242H57.876C55.434 60.473 55.604 55.123 55.717 53.639H56.555V52.133H54.76A6.42 6.42 0 0 0 52.341 39.763 6.42 6.42 0 0 0 49.922 52.133H48.13V53.639H48.965C49.079 55.121 49.248 60.473 46.806 67.242H45.841V68.721A3.4 3.4 0 0 1 45.296 69.024C41.194 70.836 40.72 72.92 40.72 74.821 40.72 76.725 41.52 76.594 41.52 76.594V77.182H41.011V79.895H40.281V83.43H64.403V79.895z" fill="#000000" data-fill-palette-color="accent"></path><path d="M34.323 78.93V75.475H33.675V74.73S34.693 74.894 34.693 72.47C34.693 70.051 34.088 67.4 28.865 65.094A4 4 0 0 1 28.176 64.709V63.123A27 27 0 0 0 31.919 61.647S34.691 48.201 29.094 33.799C26.811 27.924 23.871 24.821 20.955 23.445 19.898 21.941 16.353 17.135 13.801 16.567 13.801 16.567 14.611 19.82 14.827 22.803 12.761 23.307 11.046 24.467 10.064 25.715 7.007 29.598 4.622 31.6 1.389 32.969-1.843 34.341 1.262 41.241 3.671 41.073 5.286 40.961 7.337 39.327 10.125 39.822 12.912 40.316 15.131 39.244 15.131 39.244L15.691 40.697S7.752 49.475 7.603 62.218C7.603 62.218 9.133 62.904 11.63 63.519V64.707A4.7 4.7 0 0 1 10.937 65.094C5.715 67.399 5.112 70.051 5.112 72.471 5.112 74.893 6.129 74.729 6.129 74.729V75.473H5.481V78.928H4.552V83.428H35.252V78.928H34.323z" fill="#000000" data-fill-palette-color="accent"></path></g></g></svg></g></svg></g><g id="text-0"><path d="M25.521 86.711v0c-0.509 1.553-1.313 2.792-2.412 3.717-1.106 0.924-2.402 1.487-3.889 1.689-1.496 0.206-3.081 0.035-4.756-0.514v0c-1.572-0.515-2.902-1.303-3.99-2.362-1.086-1.066-1.815-2.321-2.187-3.765-0.375-1.437-0.297-2.964 0.232-4.581v0c0.301-0.918 0.649-1.699 1.045-2.344 0.398-0.651 0.861-1.249 1.388-1.794v0l2.109 1.629c-0.489 0.494-0.887 0.985-1.197 1.473-0.309 0.488-0.57 1.057-0.782 1.705v0c-0.479 1.463-0.353 2.865 0.38 4.206 0.726 1.339 2.023 2.315 3.89 2.927v0c1.129 0.37 2.221 0.497 3.276 0.38 1.061-0.114 1.982-0.455 2.765-1.023 0.789-0.566 1.348-1.349 1.676-2.349v0c0.261-0.796 0.397-1.504 0.408-2.126 0.005-0.624-0.053-1.314-0.174-2.071v0l2.668-0.107c0.147 0.766 0.194 1.588 0.141 2.466-0.057 0.869-0.254 1.817-0.591 2.844z" fill="#000000" data-fill-palette-color="accent"></path><path d="M36.805 63.761l-1.699 2.433-20.035-13.995 1.699-2.433 8.204 5.731c-0.386-1.027-0.552-2.099-0.498-3.214 0.054-1.115 0.447-2.196 1.177-3.242v0c1.11-1.589 2.418-2.442 3.925-2.559 1.507-0.117 3.043 0.371 4.61 1.466v0l9.183 6.414-1.7 2.433-8.909-6.223c-1.013-0.708-1.988-1.039-2.925-0.994-0.943 0.041-1.71 0.485-2.302 1.333v0c-0.58 0.83-0.84 1.827-0.779 2.989 0.065 1.157 0.309 2.275 0.733 3.354v0z" fill="#000000" data-fill-palette-color="accent"></path><path d="M62.941 37.648v0c-1.985 1.46-4.026 1.984-6.122 1.573-2.091-0.415-3.978-1.768-5.662-4.058v0c-1.016-1.382-1.665-2.811-1.947-4.288-0.278-1.472-0.178-2.869 0.299-4.193 0.477-1.323 1.336-2.441 2.575-3.352v0c1.333-0.98 2.649-1.504 3.949-1.572 1.305-0.071 2.536 0.218 3.693 0.868 1.166 0.651 2.179 1.561 3.039 2.73v0c0.456 0.62 0.873 1.244 1.25 1.872v0l-9.684 7.122c1.11 1.179 2.305 1.858 3.586 2.039 1.277 0.175 2.528-0.187 3.752-1.087v0c0.8-0.588 1.456-1.2 1.968-1.837 0.518-0.641 0.97-1.308 1.356-2.003v0l2.069 1.634c-0.43 0.76-0.974 1.525-1.632 2.294-0.664 0.773-1.493 1.525-2.489 2.258zM52.878 32.426v0l7.58-5.574c-0.992-1.349-2.093-2.14-3.304-2.373-1.211-0.233-2.409 0.087-3.595 0.959v0c-1.033 0.76-1.621 1.745-1.761 2.955-0.142 1.219 0.218 2.564 1.08 4.033z" fill="#000000" data-fill-palette-color="accent"></path><path d="M89.209 24.203v0c-1.224 0.426-2.385 0.654-3.483 0.685-1.097 0.031-2.054-0.09-2.871-0.363v0l0.371-2.756c0.702 0.271 1.516 0.413 2.443 0.426 0.929 0.02 1.859-0.132 2.79-0.455v0c1.167-0.406 1.979-0.906 2.438-1.502 0.46-0.589 0.586-1.183 0.377-1.783v0c-0.153-0.44-0.396-0.788-0.728-1.044-0.339-0.254-0.855-0.443-1.548-0.566-0.691-0.117-1.654-0.172-2.888-0.165v0c-1.7 0.005-3.053-0.218-4.06-0.668-1.01-0.457-1.735-1.32-2.177-2.588v0c-0.432-1.244-0.254-2.489 0.535-3.736 0.791-1.24 2.153-2.196 4.085-2.868v0c1.04-0.362 2.005-0.576 2.897-0.643 0.885-0.065 1.709-0.04 2.471 0.074v0l0.017 2.578c-0.677-0.136-1.409-0.186-2.196-0.148-0.792 0.047-1.624 0.222-2.498 0.526v0c-1.078 0.375-1.822 0.877-2.232 1.505-0.408 0.635-0.522 1.211-0.343 1.728v0c0.173 0.497 0.538 0.849 1.096 1.056 0.562 0.198 1.55 0.283 2.963 0.256v0c2.293-0.025 3.993 0.238 5.1 0.789 1.098 0.547 1.865 1.446 2.299 2.696v0c0.506 1.454 0.318 2.806-0.562 4.056-0.887 1.252-2.319 2.222-4.296 2.91z" fill="#000000" data-fill-palette-color="accent"></path><path d="M118.091 18.841v0c-1.295 0.062-2.473-0.048-3.534-0.329-1.061-0.281-1.945-0.668-2.651-1.161v0l1.137-2.538c0.596 0.458 1.337 0.825 2.222 1.1 0.885 0.282 1.821 0.4 2.805 0.353v0c1.234-0.059 2.155-0.309 2.763-0.75 0.608-0.435 0.897-0.969 0.866-1.602v0c-0.022-0.465-0.156-0.868-0.402-1.208-0.253-0.339-0.694-0.667-1.324-0.981-0.63-0.308-1.538-0.633-2.724-0.976v0c-1.632-0.477-2.867-1.073-3.705-1.79-0.839-0.724-1.29-1.757-1.354-3.099v0c-0.063-1.315 0.461-2.459 1.57-3.431 1.11-0.965 2.687-1.497 4.731-1.595v0c1.099-0.052 2.086 0.016 2.96 0.204 0.867 0.188 1.65 0.445 2.348 0.77v0l-0.713 2.478c-0.61-0.322-1.298-0.577-2.064-0.764-0.772-0.18-1.621-0.247-2.545-0.203v0c-1.14 0.054-1.996 0.325-2.567 0.812-0.571 0.494-0.844 1.014-0.818 1.56v0c0.025 0.526 0.276 0.967 0.753 1.323 0.483 0.349 1.406 0.71 2.769 1.085v0c2.206 0.625 3.762 1.359 4.667 2.2 0.898 0.836 1.379 1.915 1.442 3.237v0c0.073 1.538-0.489 2.781-1.688 3.731-1.205 0.95-2.853 1.474-4.944 1.574z" fill="#000000" data-fill-palette-color="accent"></path><path d="M161.163 24.82l-3.085 0.334-0.668-7.065-10.298-2.925-4.262 5.591-2.273-1.783 14.791-18.972 3.302 0.938zM156.009 3.414l-7.22 9.479 8.359 2.374z" fill="#000000" data-fill-palette-color="accent"></path><path d="M174.614 41.359l-2.441-1.687 11.396-16.488c0.426-0.617 0.579-1.159 0.46-1.627-0.116-0.474-0.41-0.874-0.881-1.2v0l1.829-1.543c1.666 1.152 2.251 2.533 1.754 4.142v0c0.371-0.145 0.885-0.259 1.54-0.339 0.661-0.077 1.388-0.042 2.181 0.104 0.794 0.146 1.582 0.49 2.365 1.032v0c1.083 0.749 1.902 1.737 2.456 2.966 0.564 1.227 0.762 2.579 0.595 4.055-0.171 1.482-0.788 2.993-1.852 4.531v0c-1.037 1.5-2.235 2.616-3.596 3.351-1.361 0.734-2.725 1.092-4.092 1.074-1.363-0.023-2.589-0.411-3.677-1.163v0c-0.833-0.576-1.496-1.28-1.988-2.112-0.493-0.842-0.826-1.642-0.999-2.402v0zM183.662 36.053v0c1.233 0.852 2.57 1.062 4.01 0.629 1.438-0.442 2.701-1.449 3.787-3.021v0c0.752-1.089 1.203-2.156 1.352-3.202 0.153-1.052 0.051-2.009-0.306-2.871-0.351-0.858-0.918-1.558-1.701-2.099v0c-0.778-0.537-1.612-0.827-2.502-0.868-0.9-0.039-1.67 0.052-2.309 0.276v0l-4.808 6.956c0.134 0.815 0.4 1.594 0.797 2.337 0.398 0.743 0.958 1.364 1.68 1.863z" fill="#000000" data-fill-palette-color="accent"></path><path d="M205.326 61.202v0c-1.484-1.968-2.033-4.002-1.647-6.103 0.39-2.096 1.72-3.999 3.99-5.711v0c1.369-1.033 2.791-1.699 4.264-1.998 1.468-0.296 2.867-0.213 4.196 0.248 1.329 0.461 2.457 1.306 3.383 2.535v0c0.996 1.321 1.536 2.63 1.619 3.929 0.087 1.304-0.187 2.539-0.822 3.703-0.637 1.174-1.535 2.198-2.694 3.072v0c-0.615 0.464-1.233 0.888-1.856 1.273v0l-7.239-9.598c-1.165 1.124-1.83 2.328-1.996 3.611-0.16 1.279 0.217 2.525 1.132 3.738v0c0.598 0.792 1.218 1.441 1.861 1.946 0.647 0.51 1.32 0.954 2.019 1.331v0l-1.608 2.089c-0.765-0.421-1.537-0.955-2.314-1.604-0.781-0.654-1.543-1.475-2.288-2.461zM210.426 51.076v0l5.666 7.512c1.337-1.008 2.114-2.119 2.332-3.332 0.218-1.213-0.116-2.407-1.002-3.583v0c-0.772-1.024-1.765-1.6-2.976-1.726-1.221-0.128-2.561 0.249-4.02 1.129z" fill="#000000" data-fill-palette-color="accent"></path><path d="M223.79 94.994l-2.546-1.497 4.872-7.802-8.584-3.078 1.061-2.598 8.709 3.442 4.501-7.79 2.664 1.53-4.753 7.278 8.082 2.716-1.052 2.713-8.182-3.218z" fill="#000000" data-fill-palette-color="accent"></path><path d="M7.531 163.948v0c-0.542-1.634-0.635-3.193-0.28-4.676 0.351-1.475 1.096-2.767 2.236-3.878 1.138-1.117 2.591-1.968 4.36-2.555v0c1.66-0.55 3.287-0.716 4.882-0.498 1.588 0.221 2.995 0.828 4.221 1.823 1.224 0.989 2.118 2.335 2.684 4.04v0c0.321 0.968 0.515 1.853 0.581 2.657 0.071 0.794 0.054 1.59-0.052 2.386v0l-2.815-0.06c0.104-0.717 0.136-1.382 0.096-1.995-0.046-0.611-0.183-1.259-0.41-1.945v0c-0.512-1.545-1.5-2.658-2.963-3.339-1.464-0.681-3.179-0.696-5.147-0.044v0c-1.192 0.395-2.202 0.975-3.029 1.74-0.821 0.763-1.39 1.634-1.705 2.614-0.318 0.973-0.301 1.988 0.049 3.046v0c0.278 0.84 0.612 1.526 1.002 2.058 0.383 0.534 0.865 1.086 1.445 1.655v0l-2.21 1.767c-0.599-0.563-1.152-1.233-1.659-2.011-0.498-0.774-0.927-1.702-1.286-2.785z" fill="#000000" data-fill-palette-color="accent"></path><path d="M21.833 190.949l-1.802-2.572 21.161-14.824 1.801 2.572-8.668 6.072c1.161-0.014 2.285 0.209 3.373 0.667 1.088 0.458 2.019 1.24 2.794 2.346v0c1.174 1.676 1.545 3.283 1.114 4.821-0.431 1.538-1.473 2.887-3.126 4.046v0l-9.697 6.793-1.802-2.572 9.407-6.589c1.067-0.748 1.75-1.597 2.048-2.548 0.308-0.949 0.148-1.872-0.479-2.768v0c-0.616-0.879-1.511-1.497-2.684-1.854-1.179-0.353-2.38-0.514-3.602-0.482v0z" fill="#000000" data-fill-palette-color="accent"></path><path d="M51.831 222.071v0c-2.102-1.541-3.276-3.433-3.525-5.674-0.244-2.247 0.52-4.58 2.294-6.997v0c1.074-1.465 2.312-2.57 3.714-3.318 1.402-0.747 2.844-1.092 4.326-1.034 1.484 0.067 2.881 0.581 4.194 1.543v0c1.41 1.034 2.354 2.196 2.832 3.485 0.484 1.293 0.58 2.628 0.29 4.005-0.287 1.372-0.885 2.679-1.795 3.921v0c-0.483 0.659-0.978 1.276-1.484 1.851v0l-10.249-7.517c-0.838 1.496-1.143 2.917-0.917 4.263 0.222 1.352 0.981 2.503 2.277 3.454v0c0.844 0.619 1.669 1.086 2.477 1.402 0.807 0.316 1.625 0.559 2.452 0.731v0l-1.005 2.604c-0.895-0.196-1.836-0.505-2.823-0.928-0.988-0.423-2.007-1.02-3.058-1.791zM53.907 210.268v0l8.02 5.882c1.046-1.426 1.496-2.788 1.35-4.084-0.15-1.291-0.854-2.397-2.112-3.32v0c-1.089-0.799-2.269-1.078-3.542-0.839-1.268 0.234-2.507 1.021-3.716 2.361z" fill="#000000" data-fill-palette-color="accent"></path><path d="M82.926 238.023v0c-1.294-0.451-2.408-1.021-3.341-1.71-0.924-0.694-1.635-1.424-2.132-2.19v0l2.112-2.032c0.399 0.682 0.976 1.334 1.732 1.955 0.765 0.617 1.641 1.097 2.63 1.441v0c1.231 0.429 2.228 0.551 2.993 0.367 0.767-0.19 1.262-0.605 1.484-1.243v0c0.16-0.459 0.187-0.907 0.082-1.344-0.107-0.431-0.412-0.923-0.913-1.476-0.492-0.557-1.253-1.237-2.282-2.038v0c-1.416-1.108-2.39-2.18-2.923-3.217-0.539-1.039-0.576-2.227-0.109-3.566v0c0.46-1.32 1.425-2.235 2.897-2.745 1.472-0.51 3.228-0.41 5.268 0.301v0c1.103 0.384 2.042 0.84 2.816 1.367 0.779 0.536 1.445 1.097 1.999 1.682v0l-1.672 2.153c-0.471-0.557-1.047-1.08-1.728-1.567-0.683-0.481-1.484-0.881-2.402-1.201v0c-1.148-0.4-2.098-0.473-2.851-0.221-0.753 0.253-1.226 0.656-1.419 1.211v0c-0.182 0.523-0.106 1.053 0.228 1.592 0.328 0.536 1.086 1.254 2.275 2.154v0c1.921 1.484 3.159 2.816 3.713 3.996 0.548 1.177 0.592 2.426 0.133 3.746v0c-0.535 1.537-1.577 2.536-3.125 2.998-1.552 0.453-3.374 0.316-5.465-0.413z" fill="#000000" data-fill-palette-color="accent"></path><path d="M116.896 244.412v0c-1.369-0.069-2.598-0.303-3.687-0.703-1.081-0.406-1.969-0.907-2.662-1.503v0l1.457-2.543c0.574 0.543 1.312 1.006 2.211 1.389 0.907 0.377 1.883 0.592 2.929 0.645v0c1.301 0.066 2.293-0.097 2.976-0.489 0.683-0.398 1.041-0.935 1.075-1.609v0c0.024-0.486-0.075-0.923-0.299-1.313-0.224-0.383-0.654-0.77-1.291-1.16-0.629-0.397-1.55-0.835-2.763-1.316v0c-1.67-0.666-2.906-1.421-3.708-2.266-0.809-0.845-1.178-1.976-1.107-3.392v0c0.07-1.396 0.74-2.545 2.009-3.448 1.269-0.903 2.983-1.3 5.141-1.191v0c1.167 0.059 2.196 0.232 3.087 0.521 0.898 0.295 1.695 0.647 2.391 1.053v0l-1 2.536c-0.608-0.403-1.308-0.742-2.099-1.019-0.791-0.27-1.672-0.429-2.643-0.478v0c-1.214-0.061-2.147 0.135-2.798 0.59-0.652 0.454-0.992 0.974-1.022 1.56v0c-0.028 0.553 0.194 1.041 0.667 1.464 0.465 0.422 1.395 0.898 2.787 1.428v0c2.261 0.885 3.823 1.815 4.687 2.792 0.857 0.976 1.25 2.162 1.179 3.558v0c-0.082 1.625-0.801 2.877-2.156 3.755-1.362 0.871-3.149 1.251-5.361 1.139z" fill="#000000" data-fill-palette-color="accent"></path><path d="M165.968 235.243l-2.596 1.992-4.51-5.982-10.882 3.057-0.752 7.396-3.042-0.344 2.84-25.278 3.491-0.981zM149.493 218.799l-1.264 12.538 8.843-2.485z" fill="#000000" data-fill-palette-color="accent"></path><path d="M193.092 230.424l-2.597 1.784-11.996-17.465c-0.447-0.651-0.925-1.007-1.433-1.067-0.503-0.064-1.005 0.076-1.506 0.42v0l-0.845-2.393c1.77-1.216 3.356-1.273 4.759-0.173v0c-0.01-0.419 0.071-0.97 0.242-1.653 0.169-0.673 0.476-1.376 0.923-2.108 0.441-0.729 1.077-1.378 1.906-1.948v0c1.147-0.787 2.432-1.224 3.855-1.309 1.42-0.091 2.831 0.222 4.233 0.938 1.4 0.726 2.66 1.904 3.78 3.535v0c1.093 1.592 1.745 3.196 1.954 4.814 0.208 1.627 0.045 3.106-0.489 4.44-0.536 1.343-1.38 2.41-2.532 3.201v0c-0.879 0.604-1.823 0.994-2.832 1.171-1.013 0.171-1.925 0.196-2.738 0.075v0zM191.252 219.499v0c1.308-0.898 2.015-2.141 2.12-3.729 0.115-1.586-0.401-3.214-1.548-4.883v0c-0.791-1.152-1.676-1.999-2.654-2.54-0.978-0.541-1.962-0.799-2.952-0.773-0.981 0.027-1.883 0.323-2.707 0.888v0c-0.829 0.57-1.434 1.288-1.813 2.155-0.374 0.863-0.569 1.652-0.585 2.368v0l5.063 7.371c0.851 0.177 1.717 0.209 2.597 0.096 0.89-0.112 1.716-0.429 2.479-0.953z" fill="#000000" data-fill-palette-color="accent"></path><path d="M220.417 194.715v0c-1.577 2.075-3.488 3.218-5.733 3.428-2.251 0.206-4.57-0.597-6.958-2.411v0c-1.446-1.099-2.531-2.355-3.254-3.769-0.723-1.414-1.044-2.862-0.962-4.343 0.092-1.482 0.629-2.871 1.614-4.167v0c1.058-1.393 2.235-2.317 3.532-2.773 1.301-0.462 2.637-0.536 4.01-0.223 1.367 0.31 2.664 0.93 3.89 1.861v0c0.651 0.494 1.259 0.999 1.826 1.515v0l-7.689 10.121c1.481 0.863 2.897 1.192 4.247 0.988 1.356-0.2 2.52-0.939 3.492-2.218v0c0.633-0.833 1.114-1.651 1.443-2.453 0.329-0.801 0.587-1.615 0.773-2.44v0l2.586 1.049c-0.211 0.891-0.536 1.827-0.975 2.808-0.44 0.98-1.053 1.989-1.842 3.027zM208.65 192.44v0l6.016-7.919c-1.409-1.07-2.762-1.543-4.06-1.419-1.293 0.128-2.411 0.814-3.355 2.056v0c-0.817 1.075-1.117 2.251-0.899 3.527 0.212 1.272 0.978 2.524 2.298 3.755z" fill="#000000" data-fill-palette-color="accent"></path><path d="M237.959 154.131l1.124 2.908-9.177 3.255 5.076 8.185-2.587 1.463-4.934-8.587-8.844 3.47-1.196-3.009 8.716-2.891-4.894-7.574 2.655-1.535 4.646 8.034z" fill="#000000" data-fill-palette-color="accent"></path><path d="M0.659 122.077c0-5.156 4.18-9.336 9.336-9.336 5.156 0 9.336 4.18 9.335 9.336 0 5.156-4.18 9.336-9.335 9.335-5.156 0-9.336-4.18-9.336-9.335z" fill="#000000" data-fill-palette-color="accent"></path><path d="M225.101 122.077c0-5.156 4.18-9.336 9.336-9.336 5.156 0 9.336 4.18 9.335 9.336 0 5.156-4.18 9.336-9.335 9.335-5.156 0-9.336-4.18-9.336-9.335z" fill="#000000" data-fill-palette-color="accent"></path></g><g id="text-1"></g></svg></g></svg></g></svg></g><defs></defs></svg><rect width="395.52" height="140.82623900346812" fill="none" stroke="none" visibility="hidden"></rect></g></svg></g></svg>