<svg xmlns="http://www.w3.org/2000/svg" version="1.1" xmlns:xlink="http://www.w3.org/1999/xlink" xmlns:svgjs="http://svgjs.dev/svgjs" width="2000" height="414" viewBox="0 0 2000 414"><g transform="matrix(1,0,0,1,-1.2121212121212466,1.0396379943240106)"><svg viewBox="0 0 396 82" data-background-color="#161618" preserveAspectRatio="xMidYMid meet" height="414" width="2000" xmlns="http://www.w3.org/2000/svg" xmlns:xlink="http://www.w3.org/1999/xlink"><g id="tight-bounds" transform="matrix(1,0,0,1,0.2400000000000091,-0.20591863655693032)"><svg viewBox="0 0 395.52 82.41168625274386" height="82.41168625274386" width="395.52"><g><svg viewBox="0 0 523.1440470999585 109.00380024927296" height="82.41168625274386" width="395.52"><g transform="matrix(1,0,0,1,127.62404709995846,15.064924636476945)"><svg viewBox="0 0 395.52 78.87395097631907" height="78.87395097631907" width="395.52"><g id="textblocktransform"><svg viewBox="0 0 395.52 78.87395097631907" height="78.87395097631907" width="395.52" id="textblock"><g><svg viewBox="0 0 395.52 78.87395097631907" height="78.87395097631907" width="395.52"><g transform="matrix(1,0,0,1,0,0)"><svg width="395.52" viewBox="2.25 -37 240.68 48" height="78.87395097631907" data-palette-color="#ffffff"><path d="M14.5 0.6L14.5 0.6Q10.8 0.6 8.03-1.13 5.25-2.85 3.75-5.93 2.25-9 2.25-13L2.25-13Q2.25-16.75 3.78-19.85 5.3-22.95 8.15-24.78 11-26.6 14.85-26.6L14.85-26.6Q17.05-26.6 18.73-26.2 20.4-25.8 21.95-25.05L21.95-25.05 20.6-21.25Q19.2-21.95 17.93-22.28 16.65-22.6 15.1-22.6L15.1-22.6Q11.6-22.6 9.22-20.08 6.85-17.55 6.85-13.1L6.85-13.1Q6.85-10.4 7.85-8.2 8.85-6 10.63-4.7 12.4-3.4 14.8-3.4L14.8-3.4Q16.7-3.4 18.05-3.83 19.4-4.25 20.95-5.05L20.95-5.05 22.35-1.25Q20.8-0.4 18.88 0.1 16.95 0.6 14.5 0.6ZM32.1 0L27.6 0 27.6-37 32.1-37 32.1-21.85Q33.5-23.9 35.65-25.25 37.8-26.6 40.7-26.6L40.7-26.6Q45.1-26.6 47.27-23.95 49.45-21.3 49.45-16.95L49.45-16.95 49.45 0 44.95 0 44.95-16.45Q44.95-19.25 43.65-20.95 42.35-22.65 40-22.65L40-22.65Q37.7-22.65 35.62-21.03 33.55-19.4 32.1-17.2L32.1-17.2 32.1 0ZM67.6 0.6L67.6 0.6Q62 0.6 58.72-2.98 55.45-6.55 55.45-13L55.45-13Q55.45-16.9 56.92-19.98 58.4-23.05 61.05-24.83 63.7-26.6 67.2-26.6L67.2-26.6Q70.95-26.6 73.42-24.98 75.9-23.35 77.15-20.6 78.4-17.85 78.4-14.55L78.4-14.55Q78.4-12.8 78.25-11.15L78.25-11.15 60.05-11.15Q60.5-7.5 62.6-5.45 64.7-3.4 68.15-3.4L68.15-3.4Q70.4-3.4 72.2-3.88 74-4.35 75.65-5.1L75.65-5.1 76.7-1.25Q74.9-0.45 72.65 0.08 70.4 0.6 67.6 0.6ZM60-14.8L60-14.8 74.25-14.8Q74.25-18.6 72.35-20.65 70.45-22.7 67.1-22.7L67.1-22.7Q64.2-22.7 62.3-20.68 60.4-18.65 60-14.8ZM91.39 0.6L91.39 0.6Q88.44 0.6 86.07-0.15 83.69-0.9 82.14-2.1L82.14-2.1 84.04-5.85Q85.34-4.75 87.32-4.03 89.29-3.3 91.54-3.3L91.54-3.3Q94.34-3.3 95.77-4.23 97.19-5.15 97.19-6.6L97.19-6.6Q97.19-7.65 96.67-8.45 96.14-9.25 94.74-10.03 93.34-10.8 90.69-11.7L90.69-11.7Q87.04-12.95 85.22-14.68 83.39-16.4 83.39-19.45L83.39-19.45Q83.39-22.45 86.02-24.53 88.64-26.6 93.29-26.6L93.29-26.6Q95.79-26.6 97.74-26.08 99.69-25.55 101.24-24.75L101.24-24.75 99.99-21.05Q98.64-21.85 96.92-22.35 95.19-22.85 93.09-22.85L93.09-22.85Q90.49-22.85 89.14-21.8 87.79-20.75 87.79-19.5L87.79-19.5Q87.79-18.3 88.84-17.45 89.89-16.6 92.94-15.6L92.94-15.6Q97.89-13.95 99.84-11.95 101.79-9.95 101.79-6.95L101.79-6.95Q101.79-3.45 98.97-1.43 96.14 0.6 91.39 0.6ZM114.79 0.6L114.79 0.6Q111.84 0.6 109.47-0.15 107.09-0.9 105.54-2.1L105.54-2.1 107.44-5.85Q108.74-4.75 110.72-4.03 112.69-3.3 114.94-3.3L114.94-3.3Q117.74-3.3 119.17-4.23 120.59-5.15 120.59-6.6L120.59-6.6Q120.59-7.65 120.07-8.45 119.54-9.25 118.14-10.03 116.74-10.8 114.09-11.7L114.09-11.7Q110.44-12.95 108.62-14.68 106.79-16.4 106.79-19.45L106.79-19.45Q106.79-22.45 109.42-24.53 112.04-26.6 116.69-26.6L116.69-26.6Q119.19-26.6 121.14-26.08 123.09-25.55 124.64-24.75L124.64-24.75 123.39-21.05Q122.04-21.85 120.32-22.35 118.59-22.85 116.49-22.85L116.49-22.85Q113.89-22.85 112.54-21.8 111.19-20.75 111.19-19.5L111.19-19.5Q111.19-18.3 112.24-17.45 113.29-16.6 116.34-15.6L116.34-15.6Q121.29-13.95 123.24-11.95 125.19-9.95 125.19-6.95L125.19-6.95Q125.19-3.45 122.37-1.43 119.54 0.6 114.79 0.6ZM160.09-1.25L155.74 0.5 151.84-9.5 135.64-9.5 131.74 0.4 127.69-1.25 141.39-35 146.59-35 160.09-1.25ZM143.74-30.3L137.14-13.5 150.29-13.5 143.74-30.3ZM170.04 11L165.54 11 165.54-19.35Q165.54-21.05 164.71-21.78 163.89-22.5 162.59-22.5L162.59-22.5 163.54-26Q168.14-26 169.29-22.35L169.29-22.35Q169.79-23.1 170.91-24.1 172.04-25.1 173.71-25.85 175.39-26.6 177.54-26.6L177.54-26.6Q180.54-26.6 183.16-25.03 185.79-23.45 187.39-20.48 188.99-17.5 188.99-13.25L188.99-13.25Q188.99-9.1 187.39-5.98 185.79-2.85 183.21-1.13 180.64 0.6 177.64 0.6L177.64 0.6Q175.34 0.6 173.34-0.33 171.34-1.25 170.04-2.45L170.04-2.45 170.04 11ZM176.74-3.4L176.74-3.4Q180.14-3.4 182.26-6.08 184.39-8.75 184.39-13.1L184.39-13.1Q184.39-16.1 183.31-18.25 182.24-20.4 180.46-21.55 178.69-22.7 176.54-22.7L176.54-22.7Q174.39-22.7 172.66-21.63 170.94-20.55 170.04-19.3L170.04-19.3 170.04-6.5Q171.34-5.15 173.04-4.28 174.74-3.4 176.74-3.4ZM205.63 0.6L205.63 0.6Q200.03 0.6 196.76-2.98 193.48-6.55 193.48-13L193.48-13Q193.48-16.9 194.96-19.98 196.43-23.05 199.08-24.83 201.73-26.6 205.23-26.6L205.23-26.6Q208.98-26.6 211.46-24.98 213.93-23.35 215.18-20.6 216.43-17.85 216.43-14.55L216.43-14.55Q216.43-12.8 216.28-11.15L216.28-11.15 198.08-11.15Q198.53-7.5 200.63-5.45 202.73-3.4 206.18-3.4L206.18-3.4Q208.43-3.4 210.23-3.88 212.03-4.35 213.68-5.1L213.68-5.1 214.73-1.25Q212.93-0.45 210.68 0.08 208.43 0.6 205.63 0.6ZM198.03-14.8L198.03-14.8 212.28-14.8Q212.28-18.6 210.38-20.65 208.48-22.7 205.13-22.7L205.13-22.7Q202.23-22.7 200.33-20.68 198.43-18.65 198.03-14.8ZM242.93-2.45L239.53 0.45 230.78-10.4 222.13 0.35 218.93-2.45 228.18-13.2 219.28-23.5 222.78-26.55 230.83-16.15 238.73-26.35 242.08-23.5 233.43-13.4 242.93-2.45Z" opacity="1" transform="matrix(1,0,0,1,0,0)" fill="#ffffff" class="wordmark-text-0" data-fill-palette-color="primary" id="text-0"></path></svg></g></svg></g></svg></g></svg></g><g><svg viewBox="0 0 109.00380024927296 109.00380024927296" height="109.00380024927296" width="109.00380024927296"><g><svg></svg></g><g id="icon-0"><svg viewBox="0 0 109.00380024927296 109.00380024927296" height="109.00380024927296" width="109.00380024927296"><g><path transform="scale(1.09004,1.09004)" d="M30 100c-16.569 0-30-13.431-30-30v-40c0-16.569 13.431-30 30-30h40c16.569 0 30 13.431 30 30v40c0 16.569-13.431 30-30 30z" fill="#ffffff" fill-rule="nonzero" stroke="none" stroke-width="1" stroke-linecap="butt" stroke-linejoin="miter" stroke-miterlimit="10" stroke-dasharray="" stroke-dashoffset="0" font-family="none" font-weight="none" font-size="none" text-anchor="none" style="mix-blend-mode: normal" data-fill-palette-color="accent"></path></g><g transform="matrix(1,0,0,1,21.800760049854595,32.6366979372835)"><svg viewBox="0 0 65.40228014956377 43.73040437470596" height="43.73040437470596" width="65.40228014956377"><g><svg xmlns="http://www.w3.org/2000/svg" xmlns:xlink="http://www.w3.org/1999/xlink" version="1.1" x="0" y="0" viewBox="0.0005970206521622584 16.567 100.00040297934784 66.864" enable-background="new 0 0 100 100" xml:space="preserve" id="dxe-0" width="65.40228014956377" height="43.73040437470596" class="icon-dxe-0" data-fill-palette-color="quaternary"><g fill="#161618" data-fill-palette-color="quaternary"><g fill="#161618" data-fill-palette-color="quaternary"><path d="M99.07 78.93V75.475H98.423V74.73S99.442 74.894 99.442 72.47C99.442 70.051 98.837 67.4 93.614 65.094 93.577 65.077 93.551 65.058 93.516 65.039H94.114V62.824H93.033L91.858 36.491H93.139V35.178H94.981V23.928H90.731V26.702H88.102V23.928H81.203V26.702H78.573V23.928H74.323V35.18H76.165V36.493H77.446L76.272 62.826H75.19V65.041H75.786C75.751 65.06 75.723 65.079 75.686 65.097 70.464 67.402 69.862 70.054 69.862 72.472 69.862 74.896 70.88 74.732 70.88 74.732V75.476H70.23V78.931H69.301V83.431H100.001V78.931z" fill="#161618" data-fill-palette-color="quaternary"></path><path d="M63.671 79.895V77.182H63.162V76.594S63.962 76.725 63.962 74.821C63.962 72.922 63.484 70.836 59.384 69.024A3.3 3.3 0 0 1 58.841 68.721V67.242H57.876C55.434 60.473 55.604 55.123 55.717 53.639H56.555V52.133H54.76A6.42 6.42 0 0 0 52.341 39.763 6.42 6.42 0 0 0 49.922 52.133H48.13V53.639H48.965C49.079 55.121 49.248 60.473 46.806 67.242H45.841V68.721A3.4 3.4 0 0 1 45.296 69.024C41.194 70.836 40.72 72.92 40.72 74.821 40.72 76.725 41.52 76.594 41.52 76.594V77.182H41.011V79.895H40.281V83.43H64.403V79.895z" fill="#161618" data-fill-palette-color="quaternary"></path><path d="M34.323 78.93V75.475H33.675V74.73S34.693 74.894 34.693 72.47C34.693 70.051 34.088 67.4 28.865 65.094A4 4 0 0 1 28.176 64.709V63.123A27 27 0 0 0 31.919 61.647S34.691 48.201 29.094 33.799C26.811 27.924 23.871 24.821 20.955 23.445 19.898 21.941 16.353 17.135 13.801 16.567 13.801 16.567 14.611 19.82 14.827 22.803 12.761 23.307 11.046 24.467 10.064 25.715 7.007 29.598 4.622 31.6 1.389 32.969-1.843 34.341 1.262 41.241 3.671 41.073 5.286 40.961 7.337 39.327 10.125 39.822 12.912 40.316 15.131 39.244 15.131 39.244L15.691 40.697S7.752 49.475 7.603 62.218C7.603 62.218 9.133 62.904 11.63 63.519V64.707A4.7 4.7 0 0 1 10.937 65.094C5.715 67.399 5.112 70.051 5.112 72.471 5.112 74.893 6.129 74.729 6.129 74.729V75.473H5.481V78.928H4.552V83.428H35.252V78.928H34.323z" fill="#161618" data-fill-palette-color="quaternary"></path></g></g></svg></g></svg></g></svg></g></svg></g></svg></g><defs></defs></svg><rect width="395.52" height="82.41168625274386" fill="none" stroke="none" visibility="hidden"></rect></g></svg></g></svg>